# xmcd
#
# Track frame offsets: 
#        150
#        17577
#        39329
#        53619
#        73622
#        98207
#        118633
#        144318
#        160718
#        184463
#        204295
#        228808
#        245096
#
# Disc length: 3475 seconds
#
# Revision: 0
# Processed by: cddbd v1.5.2PL0 Copyright (c) Steve Scherf et al.
# Submitted via: ExactAudioCopy v1.0b4
#
DISCID=a50d910d
DTITLE=Andy Poxon - Must Be Crazy
DYEAR=2015
DGENRE=Blues
TTITLE0=You Must Be Crazy
TTITLE1=Living Alone
TTITLE2=Next To You
TTITLE3=Give Me The Chance
TTITLE4=Cold Weather
TTITLE5=Don't Tell Your Mama
TTITLE6=Harder Everyday
TTITLE7=I Want To Know
TTITLE8=Already Gone
TTITLE9=Making A Fool
TTITLE10=Don't Tell Me What To Do
TTITLE11=Too Late
TTITLE12=Rebound
EXTD=
EXTT0=
EXTT1=
EXTT2=
EXTT3=
EXTT4=
EXTT5=
EXTT6=
EXTT7=
EXTT8=
EXTT9=
EXTT10=
EXTT11=
EXTT12=
PLAYORDER=
